<svg xmlns="http://www.w3.org/2000/svg" width="696" height="665" viewBox="0 0 696 665"><defs><filter id="a" width="200%" height="200%" x="-50%" y="-50%"><feMorphology in="SourceGraphic" operator="dilate" result="SvgjsFeMorphology1025Out"/><feOffset dy="20" in="SvgjsFeMorphology1025Out" result="SvgjsFeOffset1026Out"/><feGaussianBlur in="SvgjsFeOffset1026Out" result="SvgjsFeGaussianBlur1027Out" stdDeviation="12.5"/><feComposite in="SvgjsFeGaussianBlur1027Out" in2="SourceAlpha" operator="out" result="SvgjsFeComposite1028Out"/></filter><linearGradient id="b" x1="30" x2="676" y1="1252.16" y2="1252.16" gradientUnits="userSpaceOnUse"><stop offset="0" stop-color="#8658eb"/><stop offset="1" stop-color="#652ae6"/></linearGradient></defs><path fill="#201f36" fill-opacity=".05" d="M42 944h266s43.6 75.39 160 92c87.84 12.54 133.48 13.05 208 62 0 92.38-291.44 453.61-337 461-189.18 30.68-63.23-481.97-309-373" filter="url(#a)" transform="translate(-5 -940)"/><path fill="url(#b)" d="M42 944h266s43.6 75.39 160 92c87.84 12.54 133.48 13.05 208 62 0 92.38-291.44 453.61-337 461-189.18 30.68-63.23-481.97-309-373" transform="translate(-5 -940)"/></svg>